<svg width="32" height="32" viewBox="0 0 32 32" fill="none" xmlns="http://www.w3.org/2000/svg">
<path fill-rule="evenodd" clip-rule="evenodd" d="M2.48543 29.5146C4.80416 31.8334 8.53611 31.8334 16 31.8334C23.4639 31.8334 27.1959 31.8334 29.5146 29.5146C31.8334 27.1959 31.8334 23.4639 31.8334 16C31.8334 8.53611 31.8334 4.80416 29.5146 2.48543C27.1959 0.166687 23.4639 0.166687 16 0.166687C8.53611 0.166687 4.80416 0.166687 2.48543 2.48543C0.166687 4.80416 0.166687 8.53611 0.166687 16C0.166687 23.4639 0.166687 27.1959 2.48543 29.5146ZM12.0417 10.8542C9.19971 10.8542 6.89585 13.1581 6.89585 16C6.89585 18.8419 9.19971 21.1459 12.0417 21.1459C14.8836 21.1459 17.1875 18.8419 17.1875 16C17.1875 15.3442 17.7192 14.8125 18.375 14.8125C19.0308 14.8125 19.5625 15.3442 19.5625 16C19.5625 20.1537 16.1954 23.5209 12.0417 23.5209C7.88805 23.5209 4.52085 20.1537 4.52085 16C4.52085 11.8464 7.88805 8.47919 12.0417 8.47919C12.6975 8.47919 13.2292 9.01085 13.2292 9.66669C13.2292 10.3225 12.6975 10.8542 12.0417 10.8542ZM25.1042 16C25.1042 18.8419 22.8003 21.1459 19.9584 21.1459C19.3025 21.1459 18.7709 21.6775 18.7709 22.3334C18.7709 22.9892 19.3025 23.5209 19.9584 23.5209C24.1121 23.5209 27.4792 20.1537 27.4792 16C27.4792 11.8464 24.1121 8.47919 19.9584 8.47919C15.8046 8.47919 12.4375 11.8464 12.4375 16C12.4375 16.6558 12.9692 17.1875 13.625 17.1875C14.2808 17.1875 14.8125 16.6558 14.8125 16C14.8125 13.1581 17.1164 10.8542 19.9584 10.8542C22.8003 10.8542 25.1042 13.1581 25.1042 16Z" fill="#6038FF"/>
</svg>
