<svg width="159" height="38" viewBox="0 0 159 38" fill="none" xmlns="http://www.w3.org/2000/svg">
<path fill-rule="evenodd" clip-rule="evenodd" d="M5.48543 32.5146C7.80416 34.8334 11.5361 34.8334 19 34.8334C26.4639 34.8334 30.1959 34.8334 32.5146 32.5146C34.8334 30.1959 34.8334 26.4639 34.8334 19C34.8334 11.5361 34.8334 7.80416 32.5146 5.48543C30.1959 3.16669 26.4639 3.16669 19 3.16669C11.5361 3.16669 7.80416 3.16669 5.48543 5.48543C3.16669 7.80416 3.16669 11.5361 3.16669 19C3.16669 26.4639 3.16669 30.1959 5.48543 32.5146ZM15.0417 13.8542C12.1997 13.8542 9.89585 16.1581 9.89585 19C9.89585 21.8419 12.1997 24.1459 15.0417 24.1459C17.8836 24.1459 20.1875 21.8419 20.1875 19C20.1875 18.3442 20.7192 17.8125 21.375 17.8125C22.0308 17.8125 22.5625 18.3442 22.5625 19C22.5625 23.1537 19.1954 26.5209 15.0417 26.5209C10.888 26.5209 7.52085 23.1537 7.52085 19C7.52085 14.8464 10.888 11.4792 15.0417 11.4792C15.6975 11.4792 16.2292 12.0109 16.2292 12.6667C16.2292 13.3225 15.6975 13.8542 15.0417 13.8542ZM28.1042 19C28.1042 21.8419 25.8003 24.1459 22.9584 24.1459C22.3025 24.1459 21.7709 24.6775 21.7709 25.3334C21.7709 25.9892 22.3025 26.5209 22.9584 26.5209C27.1121 26.5209 30.4792 23.1537 30.4792 19C30.4792 14.8464 27.1121 11.4792 22.9584 11.4792C18.8046 11.4792 15.4375 14.8464 15.4375 19C15.4375 19.6558 15.9692 20.1875 16.625 20.1875C17.2808 20.1875 17.8125 19.6558 17.8125 19C17.8125 16.1581 20.1164 13.8542 22.9584 13.8542C25.8003 13.8542 28.1042 16.1581 28.1042 19Z" fill="#6038FF"/>
<path d="M55.75 17.25L55.27 17.31V8.4H59.11V30H55.63L55.39 28.14C54.91 28.7 54.27 29.19 53.47 29.61C52.69 30.01 51.78 30.21 50.74 30.21C49.44 30.21 48.29 29.89 47.29 29.25C46.29 28.61 45.51 27.72 44.95 26.58C44.39 25.42 44.11 24.06 44.11 22.5C44.11 20.94 44.39 19.58 44.95 18.42C45.51 17.26 46.29 16.37 47.29 15.75C48.29 15.11 49.44 14.79 50.74 14.79C51.92 14.79 52.93 15.03 53.77 15.51C54.63 15.99 55.29 16.57 55.75 17.25ZM48.25 22.5C48.25 23.76 48.57 24.78 49.21 25.56C49.85 26.32 50.69 26.7 51.73 26.7C52.37 26.7 52.95 26.54 53.47 26.22C54.01 25.88 54.44 25.4 54.76 24.78C55.1 24.16 55.27 23.4 55.27 22.5C55.27 21.6 55.1 20.84 54.76 20.22C54.44 19.6 54.01 19.13 53.47 18.81C52.95 18.47 52.37 18.3 51.73 18.3C50.69 18.3 49.85 18.69 49.21 19.47C48.57 20.23 48.25 21.24 48.25 22.5ZM69.5997 30.21C68.0997 30.21 66.7797 29.88 65.6397 29.22C64.4997 28.56 63.6097 27.64 62.9697 26.46C62.3497 25.28 62.0397 23.92 62.0397 22.38C62.0397 20.9 62.3497 19.59 62.9697 18.45C63.5897 17.31 64.4497 16.42 65.5497 15.78C66.6697 15.12 67.9397 14.79 69.3597 14.79C70.7997 14.79 72.0697 15.1 73.1697 15.72C74.2697 16.34 75.1197 17.21 75.7197 18.33C76.3397 19.43 76.6497 20.72 76.6497 22.2C76.6497 22.42 76.6297 22.67 76.5897 22.95C76.5697 23.21 76.5397 23.49 76.4997 23.79H66.1797C66.2597 24.43 66.4597 24.98 66.7797 25.44C67.1197 25.88 67.5297 26.23 68.0097 26.49C68.5097 26.73 69.0697 26.85 69.6897 26.85C70.4297 26.85 71.0897 26.7 71.6697 26.4C72.2697 26.08 72.6997 25.67 72.9597 25.17L76.3797 26.19C75.7797 27.47 74.8797 28.46 73.6797 29.16C72.4997 29.86 71.1397 30.21 69.5997 30.21ZM72.4497 21C72.4297 20.44 72.2797 19.94 71.9997 19.5C71.7197 19.04 71.3497 18.69 70.8897 18.45C70.4297 18.19 69.9197 18.06 69.3597 18.06C68.8597 18.06 68.3897 18.19 67.9497 18.45C67.5097 18.71 67.1297 19.06 66.8097 19.5C66.5097 19.92 66.3097 20.42 66.2097 21H72.4497ZM82.4868 15L86.0568 25.68L89.6568 15H93.7668L88.1868 30H83.8968L78.3468 15H82.4868ZM96.2174 8.4H100.057V30H96.2174V8.4ZM104.257 15H108.097V30H104.257V15ZM106.207 13.08C105.487 13.08 104.897 12.86 104.437 12.42C103.977 11.96 103.747 11.4 103.747 10.74C103.747 10.08 103.977 9.53 104.437 9.09C104.897 8.63 105.487 8.4 106.207 8.4C106.887 8.4 107.457 8.63 107.917 9.09C108.397 9.53 108.637 10.08 108.637 10.74C108.637 11.4 108.397 11.96 107.917 12.42C107.457 12.86 106.887 13.08 106.207 13.08ZM112.301 15H115.781L116.051 16.53C116.531 15.99 117.111 15.57 117.791 15.27C118.491 14.95 119.241 14.79 120.041 14.79C121.221 14.79 122.221 15.04 123.041 15.54C123.881 16.04 124.521 16.77 124.961 17.73C125.421 18.67 125.651 19.84 125.651 21.24V30H121.781V21.75C121.781 20.59 121.551 19.72 121.091 19.14C120.631 18.56 119.941 18.27 119.021 18.27C118.081 18.27 117.361 18.57 116.861 19.17C116.381 19.75 116.141 20.62 116.141 21.78V30H112.301V15ZM129.118 8.4H132.988V20.85H133.948L138.898 15H143.938L137.308 22.44L143.968 30H138.928L133.918 24.06H132.988V30H129.118V8.4ZM148.869 25.11C148.989 25.61 149.189 25.99 149.469 26.25C149.769 26.51 150.099 26.7 150.459 26.82C150.839 26.92 151.219 26.97 151.599 26.97C152.299 26.97 152.849 26.84 153.249 26.58C153.649 26.3 153.849 25.95 153.849 25.53C153.849 25.17 153.709 24.89 153.429 24.69C153.149 24.47 152.789 24.31 152.349 24.21C151.909 24.09 151.459 23.97 150.999 23.85C150.459 23.71 149.879 23.56 149.259 23.4C148.659 23.22 148.089 22.97 147.549 22.65C147.009 22.33 146.559 21.92 146.199 21.42C145.839 20.9 145.659 20.25 145.659 19.47C145.659 18.55 145.909 17.74 146.409 17.04C146.929 16.34 147.639 15.79 148.539 15.39C149.459 14.99 150.519 14.79 151.719 14.79C153.139 14.79 154.339 15.09 155.319 15.69C156.299 16.29 157.009 17.15 157.449 18.27L154.059 19.23C153.959 18.95 153.789 18.72 153.549 18.54C153.309 18.36 153.019 18.23 152.679 18.15C152.359 18.07 152.029 18.03 151.689 18.03C151.109 18.03 150.629 18.15 150.249 18.39C149.869 18.61 149.679 18.92 149.679 19.32C149.679 19.56 149.749 19.76 149.889 19.92C150.029 20.06 150.219 20.18 150.459 20.28C150.719 20.38 151.009 20.47 151.329 20.55C151.669 20.63 152.039 20.72 152.439 20.82C153.059 20.98 153.679 21.17 154.299 21.39C154.939 21.59 155.519 21.85 156.039 22.17C156.579 22.49 157.009 22.92 157.329 23.46C157.649 24 157.829 24.68 157.869 25.5C157.869 26.38 157.619 27.18 157.119 27.9C156.619 28.6 155.899 29.16 154.959 29.58C154.019 30 152.879 30.21 151.539 30.21C149.979 30.21 148.649 29.88 147.549 29.22C146.469 28.56 145.759 27.53 145.419 26.13L148.869 25.11Z" fill="#3B3B3B"/>
</svg>
